inDegrees=no
num_controls=7
num_derivatives=13
num_iterations=51
num_multipliers=7
num_parameters=0
num_slacks=7
num_states=26
objective=0.471667
objective_accelerations=0.061974
objective_balance=0.000957
objective_effort=0.017057
objective_height=0.382482
objective_ligament=0.009197
solver_duration=697.995490
status=Solve_Succeeded
success=true
DataType=double
version=3
OpenSimVersion=4.5
endheader
time	/jointset/ground_pelvis/pelvis_tilt/value	/jointset/ground_pelvis/pelvis_tx/value	/jointset/ground_pelvis/pelvis_ty/value	/jointset/hip_l/hip_flexion_l/value	/jointset/hip_l/hip_adduction_l/value	/jointset/hip_l/hip_rotation_l/value	/jointset/back/lumbar_extension/value	/jointset/patellofemoral_l/patellar_flexion_l/value	/jointset/knee_l/knee_flexion_l/value	/jointset/knee_l/knee_adduction_l/value	/jointset/knee_l/knee_rotation_l/value	/jointset/ankle_l/ankle_angle_l/value	/jointset/subtalar_l/subtalar_angle_l/value	/jointset/ground_pelvis/pelvis_tilt/speed	/jointset/ground_pelvis/pelvis_tx/speed	/jointset/ground_pelvis/pelvis_ty/speed	/jointset/hip_l/hip_flexion_l/speed	/jointset/hip_l/hip_adduction_l/speed	/jointset/hip_l/hip_rotation_l/speed	/jointset/back/lumbar_extension/speed	/jointset/patellofemoral_l/patellar_flexion_l/speed	/jointset/knee_l/knee_flexion_l/speed	/jointset/knee_l/knee_adduction_l/speed	/jointset/knee_l/knee_rotation_l/speed	/jointset/ankle_l/ankle_angle_l/speed	/jointset/subtalar_l/subtalar_angle_l/speed	/forceset/tau_hip_flexion_l	/forceset/tau_hip_adduction_l	/forceset/tau_hip_rotation_l	/forceset/tau_knee_flexion_l	/forceset/tau_ankle_angle_l	/forceset/tau_subtalar_angle_l	/forceset/tau_lumbar_extension	lambda_cid13_p0	lambda_cid13_p1	lambda_cid13_p2	lambda_cid13_p3	lambda_cid13_p4	lambda_cid13_p5	lambda_cid14_p0	/jointset/ground_pelvis/pelvis_tilt/accel	/jointset/ground_pelvis/pelvis_tx/accel	/jointset/ground_pelvis/pelvis_ty/accel	/jointset/hip_l/hip_flexion_l/accel	/jointset/hip_l/hip_adduction_l/accel	/jointset/hip_l/hip_rotation_l/accel	/jointset/back/lumbar_extension/accel	/jointset/patellofemoral_l/patellar_flexion_l/accel	/jointset/knee_l/knee_flexion_l/accel	/jointset/knee_l/knee_adduction_l/accel	/jointset/knee_l/knee_rotation_l/accel	/jointset/ankle_l/ankle_angle_l/accel	/jointset/subtalar_l/subtalar_angle_l/accel	gamma_cid13_p0	gamma_cid13_p1	gamma_cid13_p2	gamma_cid13_p3	gamma_cid13_p4	gamma_cid13_p5	gamma_cid14_p0
0.5	-0.3032505765748254	-0.003544740506511867	0.7823831010138329	1.054141490780329	-0.3581212370945243	-0.03341953594350733	-0.4020857800133467	0.8327475864784435	0.8327475864783858	-0.04492322459713968	-0.1745070193720377	0.1990479344196228	0.1256507578178963	-0.9871864585533616	-0.2592239941331416	-0.4777363827345302	2.554020137513976	0.04083517843350819	0.5096110079435874	-0.3048427690778907	1.676135079265167	1.676135079265109	0.2364112001244525	0.00132068437036019	0.2436195139429681	0.1292196820877972	-0.1336853238540271	0.05995532758866776	0.00164389817456551	-0.165019766399926	0.03906752890586029	-0.0195127328704542	0.1331546706899652	-14.19739028052582	12.97093427571872	-4.645628337955974	-1.60996243368572	-439.228386657748	-31.58227977670826	-9.747806696109116	0.4401791462261792	0.4730231458165328	-0.4027579796474278	-1.385313994722744	0.2008830669182687	-0.5769908996594014	1.492540864788204	-1.310523475459677	-1.310523475459677	-0.2642900327681822	0.02533147670155543	-0.5063475843737857	0.1234670902088129	-3.235357677311702e-07	-4.944458170007566e-07	2.898883781631906e-06	1.096771860883066e-07	-7.469331741619225e-07	-2.551083885070658e-07	-4.640366475432103e-07
0.51	-0.313098183159281	-0.006112904326226605	0.7775867619063079	1.079607378010313	-0.3577049488337732	-0.02834959506322893	-0.4050604361129857	0.8494403840626158	0.849440384062514	-0.04257842158491196	-0.1744926447056935	0.2014578225351779	0.1269461842027785	-0.9822028207720013	-0.2543746707769978	-0.4814232964457332	2.538805322627617	0.04240687543155279	0.5043627714381517	-0.2900728922564009	1.662184006273779	1.662184006273772	0.2324980807539077	0.001564333841334925	0.2383222024331495	0.1298318208863591	-0.1391881437951347	0.06100081991390154	0.001019605434274524	-0.1661760220152222	0.03880792861812746	-0.01884507746423646	0.1371444172076665	-14.41711877264477	12.8542250556586	-4.780974251145454	-1.727847302962027	-442.3695365995666	-31.52958594770952	-9.045041577722467	0.5472223398905289	0.4960264961103832	-0.3355830643161068	-1.642417173705087	0.1326177496943047	-0.5013184925110007	1.471544879715218	-1.473372964829657	-1.473372964821866	-0.4625228595924319	0.02595321311953117	-0.5468312362727775	0.02473849348533684	-3.212833919440402e-07	-4.473274503006926e-07	2.903192596843997e-06	1.156958361799336e-07	-7.24175686657723e-07	-1.68964502554398e-07	-4.639131313058952e-07
0.52	-0.3228920001167641	-0.008631546999260447	0.7727567686621786	1.104910546703818	-0.357273482656348	-0.02333265224131172	-0.4078869266866315	0.8659864761660618	0.865986476165996	-0.04027428976039908	-0.1744754192385353	0.2038136558752359	0.1282466622194077	-0.9764285331586472	-0.2493197647969621	-0.4844672100554041	2.521476430216754	0.04387076176746358	0.4990113962716894	-0.275209663879476	1.646793983128338	1.646793983128383	0.2282769625675738	0.001890844545267371	0.2328085588438577	0.1302300084371402	-0.1446909637361864	0.06204631223915777	0.0003953126943319927	-0.1673322776305221	0.03854832833039084	-0.01817742205799699	0.1411341637254219	-14.63554549198573	12.73403631948154	-4.912050084159704	-1.872192372605106	-445.4988484829086	-31.5559355580336	-8.34697816847909	0.5983091126249764	0.5141396705950071	-0.2741579593409859	-1.808129499623777	0.1793209344914994	-0.5976186318647311	1.511211175875216	-1.598313506270371	-1.598313506270376	-0.3258897959259965	0.04190372329305012	-0.5496140002682901	0.0806768406527	-3.249840993375479e-07	-5.600443868732307e-07	2.887974239660734e-06	9.982250487192488e-08	-7.089112717556198e-07	-1.174787116138091e-07	-4.825306116013664e-07
0.53	-0.332624219779904	-0.01109874649509747	0.767899565767282	1.130030198311777	-0.3568279439698602	-0.01837062431837059	-0.4105644542534987	0.8823716607599666	0.8823716607599257	-0.03801331873675753	-0.1744554032496325	0.20611323583532	0.1295499926620673	-0.9698881922941124	-0.2440986421219693	-0.4868638465557691	2.502127463458122	0.04523334392366578	0.4933154727469542	-0.2602966699285094	1.630018783039096	1.630018783039138	0.2239402394281931	0.002089386362813898	0.2270722321783637	0.1304169623692389	-0.1502632474489896	0.0629868865894848	-0.000179030911303878	-0.168323852885078	0.03785711830461357	-0.01762258098134297	0.1450988886584396	-15.00925039073251	12.67986838516108	-5.042044645952005	-1.801384601548959	-448.6779013951777	-31.47955964702054	-7.66554225559964	0.7009349235732923	0.5293407004337903	-0.2061283188897958	-2.047301053404375	0.1138586032416436	-0.5678303311924405	1.481220439377088	-1.750647689746975	-1.750647689747377	-0.4841706917249354	0.00594131491109384	-0.5909565654545185	-0.01540592101319745	-3.213503678315226e-07	-5.341574226583138e-07	2.877991246276242e-06	1.029580543330752e-07	-6.838154405902796e-07	-3.431938728278608e-08	-4.829754989616391e-07
0.54	-0.3422872283643592	-0.01351308633728808	0.7630216541426801	1.154946556094273	-0.3563689531123962	-0.01346800585435512	-0.4130928764939206	0.8985823884670482	0.8985823884670875	-0.03579503636823972	-0.174433979461804	0.2083543896155934	0.1308545705259479	-0.9625863174213467	-0.2387478340676802	-0.4886089559964438	2.480817665122633	0.04656119596214102	0.4871295044856274	-0.2453885985907535	1.611902605770019	1.611902605770058	0.2197392315375854	0.002172404337379408	0.2211233228822888	0.130479492681273	-0.1558355311617179	0.06392746093986273	-0.0007533745167850857	-0.1693154281396317	0.03716590827883901	-0.01706773990462815	0.1490636135915275	-15.38022101170643	12.61785380074534	-5.162371025975318	-1.763570054376114	-451.8282744779327	-31.48894853508378	-7.01859044295353	0.7506159142711896	0.5400767464543343	-0.1438525474028982	-2.200295814995232	0.1723749109460716	-0.69562757918314	1.510226653233097	-1.866508942237379	-1.866508942237368	-0.2987467461713906	0.01879895469675411	-0.5921305263843595	0.05579211663979849	-3.096019379685669e-07	-3.549214618274876e-07	2.873800570286137e-06	1.271247059218061e-07	-6.478422978145495e-07	8.388299526744108e-08	-4.633145388191384e-07
0.55	-0.3518736068568887	-0.01587328830225724	0.7581295628495625	1.179640300899206	-0.3558967932127016	-0.008629021876636507	-0.4154722529324021	0.9146054443176656	0.9146054443176421	-0.0336183667017363	-0.1744118397167752	0.2105351438448067	0.1321592525688484	-0.9545681802706566	-0.2332718535294688	-0.4896964495465845	2.457607804932378	0.04785638487352196	0.4806037650986814	-0.2305031580441546	1.592491869710988	1.592491869711005	0.2155931845572187	0.002233256852880858	0.2150010166145015	0.1304269557861029	-0.1612239308278798	0.06454739011894745	-0.001264074155771726	-0.1706860186222702	0.0368998568781521	-0.01663983096113837	0.1528696075746997	-15.62957724225213	12.60480853431778	-5.307795280356763	-1.794269573146384	-455.0623156828336	-31.47855877785384	-6.406757940183221	0.8455552173519015	0.5544925785184499	-0.07439544086925172	-2.429905396676622	0.1055720733999386	-0.6409784022539187	1.475232414433205	-2.010769615804873	-2.010769615808221	-0.4727716372549813	-0.003055149865255538	-0.6262753972076742	-0.04057009781758072	-2.973309166290108e-07	-1.988007376751053e-07	2.855738865983821e-06	1.472758836225817e-07	-6.112988905882237e-07	1.923880256674644e-07	-4.443786202741278e-07
0.5600000000000001	-0.361376175457536	-0.01817810368764155	0.7532299570845329	1.204092232247118	-0.3554121851854588	-0.003857281549536299	-0.4177032690336036	0.9304279100720743	0.9304279100719822	-0.03148320509778142	-0.1743896481565415	0.2126538760672911	0.133462450541753	-0.9458243390446051	-0.2276705181507109	-0.4901118503787947	2.432454973716678	0.04905082147152013	0.4736807743595895	-0.2157165311351582	1.571784586529197	1.57178458652919	0.2114376190454364	0.002182767374689474	0.2087189215374454	0.1301826786820478	-0.1666123304939532	0.06516731929811134	-0.001774773795216732	-0.1720566091049043	0.03663380547747749	-0.01621192201754084	0.1566756015579543	-15.87686982448671	12.5841854798369	-5.443767172121351	-1.858328074846006	-458.2799054307458	-31.55063612106353	-5.830113654813154	0.8957567293434826	0.5651477145637103	-0.009434003816776202	-2.588890020084166	0.1522244482694381	-0.7750778496123855	1.490463925712594	-2.125818366789605	-2.125818366789634	-0.3006504524545306	-0.003469444041930296	-0.6240882882380109	0.01744407486277658	-2.84432785517534e-07	-7.041829753685492e-08	2.821031927706852e-06	1.626084926578111e-07	-5.740711660211831e-07	2.892562334872435e-07	-4.263127516461053e-07
0.5700000000000001	-0.3707878451781633	-0.02042635744801661	0.7483295406823894	1.228283304201614	-0.3549160297858881	0.0008440291615202675	-0.4197869160736497	0.9460370733553262	0.9460370733551806	-0.02938996159485551	-0.1743679777216808	0.2147090813853664	0.1347623777282072	-0.936392069860199	-0.2219663000590038	-0.4898585082443286	2.405450096791484	0.0501604043497585	0.4665630308200245	-0.2010435557268564	1.549845588796843	1.549845588796831	0.2071716025194153	0.00215153241698138	0.2022987131518808	0.1297657972307241	-0.171940200442969	0.06561912366446049	-0.002214530201476061	-0.1734398414955133	0.03626379712149729	-0.01590691814820433	0.160381254391911	-16.1697549702797	12.6232415225789	-5.587334130463244	-1.820372595595245	-461.4863702687655	-31.53747292921266	-5.288373074278319	0.9845595645717367	0.5751831927816213	0.0595459902964388	-2.802729385643589	0.08697281039889809	-0.6832357920440965	1.451112520318925	-2.258229456006251	-2.258229456006974	-0.4954799792886317	-0.002368304124851602	-0.6545086611885471	-0.07713093247576507	-2.7011004913803e-07	5.364742068683643e-08	2.77583701113974e-06	1.765242763774212e-07	-5.347523923480728e-07	3.821309627289358e-07	-4.070052999093815e-07
0.58	-0.3801016726966306	-0.02261714416021315	0.7434350232352338	1.252195038815487	-0.3544094490369739	0.005473539800001937	-0.4217247537252241	0.9614207888653296	0.9614207888651514	-0.02734055880251259	-0.1743465031929035	0.216699380310089	0.1360569607646791	-0.9262558986124844	-0.2161771085150075	-0.4889320593812186	2.376587505590028	0.05113589133990483	0.4593207598438296	-0.1865546534413563	1.526695031882568	1.526695031882552	0.2026694769288905	0.002143586159683905	0.1957376428674033	0.129113848685568	-0.1772680703919018	0.06607092803084706	-0.002654286607728049	-0.1748230738861238	0.0358937887655137	-0.01560191427882309	0.1640869072259527	-16.46129333883863	12.65501075393477	-5.721684221856493	-1.81438388195538	-464.6883821110594	-31.60346894575541	-4.781020774011179	1.036537142005212	0.5821424050216248	0.1251873419120098	-2.960432875336342	0.1254052706509749	-0.7999833369384854	1.45364930115227	-2.368130203173682	-2.368130203173699	-0.3478722653552945	0.001188296040058733	-0.6522606680204799	-0.02956934390373211	-2.539320128745837e-07	1.720913615334265e-07	2.716983332148256e-06	1.885948922441317e-07	-4.927103919321745e-07	4.698048826596305e-07	-3.860809027287681e-07
